<svg xmlns="http://www.w3.org/2000/svg" viewBox="0 0 66 66"><path d="M52.54 39.51c1.73 0 3.39.34 4.9.97V22.12H2.53v25.62a3.98 3.98 0 0 0 3.98 3.99h33.12c.37-6.8 6.02-12.22 12.91-12.22zm-.4-.6h-2.97c-.56 0-1-.44-1-1 0-.55.44-1 1-1h2.97c.55 0 1 .45 1 1 0 .56-.45 1-1 1zm1-5.97c0 .56-.45 1-1 1h-8.27c-.55 0-1-.44-1-1 0-.55.45-1 1-1h8.27c.55 0 1 .45 1 1zm-18.38-5.96h13.7c.56 0 1 .44 1 1 0 .55-.44 1-1 1h-13.7c-.55 0-1-.45-1-1 0-.56.45-1 1-1zm0 4.96h5.36c.55 0 1 .45 1 1 0 .56-.45 1-1 1h-5.36c-.55 0-1-.44-1-1 0-.55.45-1 1-1zm0 4.97h10.72c.56 0 1 .45 1 1 0 .56-.44 1-1 1H34.76c-.55 0-1-.44-1-1 0-.55.45-1 1-1zm-6.73 8.54H9.26V26.4h18.77v19.05zm10.91-1.57h-4.18c-.55 0-1-.44-1-1 0-.55.45-1 1-1h4.18c.55 0 1 .45 1 1 0 .56-.45 1-1 1zM34.08 4.12c0-.82-.67-1.49-1.49-1.49h-5.21c-.82 0-1.49.67-1.49 1.49v12.12h8.19V4.12zm-4.09 4.07c-.81 0-1.45-.66-1.45-1.45 0-.81.64-1.45 1.45-1.45.8 0 1.44.64 1.44 1.45 0 .8-.65 1.45-1.44 1.45z"/><path d="M52.54 41.51c-6.04 0-10.93 4.89-10.93 10.93s4.89 10.93 10.93 10.93c6.03 0 10.93-4.89 10.93-10.93s-4.9-10.93-10.93-10.93zm6.42 7.95-8.01 8.01c-.2.2-.45.29-.71.29s-.51-.1-.71-.29l-3.42-3.42a.996.996 0 1 1 1.41-1.41l2.71 2.71 7.3-7.3c.39-.39 1.02-.39 1.41 0s.41 1.02.02 1.41zm-33.38-6.94c0-2.87-2.32-5.18-5.17-5.18h-3.49c-2.85 0-5.17 2.32-5.17 5.18v.93h13.84v-.93zm-6.94-6.6c1.83 0 3.3-1.48 3.3-3.3s-1.48-3.3-3.3-3.3-3.3 1.48-3.3 3.3 1.48 3.3 3.3 3.3zm38.8-19.58c0-2.2-1.78-3.98-3.98-3.98H36.08v2.88h.13c.55 0 1 .45 1 1s-.45 1-1 1H23.76c-.55 0-1-.45-1-1s.45-1 1-1h.13v-2.88H6.51c-2.2 0-3.98 1.78-3.98 3.98v3.78h54.91v-3.78z"/></svg>