<svg xmlns="http://www.w3.org/2000/svg" xml:space="preserve" id="Layer_1" x="0" y="0" style="enable-background:new 0 0 512 512" version="1.1" viewBox="0 0 512 512">
  <path d="M483.03,237H131.7c-13.77,0-24.97,11.2-24.97,24.97v41.49c0,3.87,3.13,7,7,7s7-3.13,7-7v-30.33l169.43,138.93
	c5.07,4.15,11.14,6.23,17.21,6.23c6.07,0,12.14-2.08,17.21-6.23L494,273.13v209.9c0,0.92-0.13,1.81-0.34,2.66l-110.1-96.84
	c-2.9-2.55-7.33-2.27-9.88,0.63c-2.55,2.9-2.27,7.33,0.63,9.88L481.9,494H132.82l107.59-94.64c2.9-2.55,3.19-6.98,0.63-9.88
	c-2.55-2.9-6.98-3.19-9.88-0.63l-110.1,96.84c-0.21-0.85-0.34-1.74-0.34-2.66v-40.49c0-3.87-3.13-7-7-7s-7,3.13-7,7v40.49
	c0,13.77,11.2,24.97,24.97,24.97h351.34c13.77,0,24.97-11.2,24.97-24.97V261.97C508,248.2,496.8,237,483.03,237z M315.69,401.24
	c-4.9,4.02-11.76,4.02-16.66,0L122.31,256.32c1.92-3.18,5.4-5.32,9.39-5.32h351.34c3.98,0,7.46,2.14,9.39,5.32L315.69,401.24z
	 M89.14,379.5H11c-3.87,0-7-3.13-7-7s3.13-7,7-7h78.14c3.87,0,7,3.13,7,7S93.01,379.5,89.14,379.5z M55.59,332.46
	c-3.87,0-7-3.13-7-7s3.13-7,7-7h78.06c3.87,0,7,3.13,7,7s-3.13,7-7,7H55.59z M133.64,426.54H55.59c-3.87,0-7-3.13-7-7s3.13-7,7-7
	h78.06c3.87,0,7,3.13,7,7S137.51,426.54,133.64,426.54z M480.16,4H31.84C16.49,4,4,16.49,4,31.84v91.5
	c0,15.35,12.49,27.84,27.84,27.84h192.21l25.89,44.85c1.25,2.17,3.56,3.5,6.06,3.5s4.81-1.33,6.06-3.5l25.89-44.85h192.21
	c15.35,0,27.84-12.49,27.84-27.84v-91.5C508,16.49,495.51,4,480.16,4z M494,123.34c0,7.63-6.21,13.84-13.84,13.84H283.91
	c-2.5,0-4.81,1.33-6.06,3.5L256,178.52l-21.85-37.85c-1.25-2.17-3.56-3.5-6.06-3.5H31.84c-7.63,0-13.84-6.21-13.84-13.84v-91.5
	C18,24.21,24.21,18,31.84,18h448.32c7.63,0,13.84,6.21,13.84,13.84V123.34z M315.77,72.81l-8.27,4.78l8.27,4.78
	c3.35,1.93,4.5,6.21,2.56,9.56c-1.93,3.35-6.21,4.5-9.56,2.56l-8.27-4.78v9.55c0,3.87-3.13,7-7,7s-7-3.13-7-7v-9.55l-8.27,4.77
	c-3.35,1.93-7.63,0.79-9.56-2.56c-1.93-3.35-0.79-7.63,2.56-9.56l8.27-4.78l-8.27-4.78c-3.35-1.93-4.5-6.21-2.56-9.56
	c1.93-3.35,6.21-4.5,9.56-2.56l8.27,4.77v-9.55c0-3.87,3.13-7,7-7s7,3.13,7,7v9.55l8.27-4.78c3.35-1.93,7.63-0.79,9.56,2.56
	C320.26,66.6,319.11,70.88,315.77,72.81z M240.78,72.81l-8.27,4.78l8.27,4.78c3.35,1.93,4.5,6.21,2.56,9.56
	c-1.93,3.35-6.21,4.5-9.56,2.56l-8.27-4.78v9.55c0,3.87-3.13,7-7,7s-7-3.13-7-7v-9.55l-8.27,4.77c-3.35,1.93-7.63,0.79-9.56-2.56
	s-0.79-7.63,2.56-9.56l8.27-4.78l-8.27-4.78c-3.35-1.93-4.5-6.21-2.56-9.56c1.93-3.35,6.21-4.5,9.56-2.56l8.27,4.77v-9.55
	c0-3.87,3.13-7,7-7s7,3.13,7,7v9.55l8.27-4.78c3.35-1.93,7.63-0.79,9.56,2.56S244.12,70.88,240.78,72.81z M390.76,72.81l-8.27,4.78
	l8.27,4.78c3.35,1.93,4.5,6.21,2.56,9.56c-1.93,3.35-6.21,4.5-9.56,2.56l-8.27-4.78v9.55c0,3.87-3.13,7-7,7s-7-3.13-7-7v-9.55
	l-8.27,4.77c-3.35,1.93-7.63,0.79-9.56-2.56c-1.93-3.35-0.79-7.63,2.56-9.56l8.27-4.78l-8.27-4.78c-3.35-1.93-4.5-6.21-2.56-9.56
	c1.93-3.35,6.21-4.5,9.56-2.56l8.27,4.77v-9.55c0-3.87,3.13-7,7-7s7,3.13,7,7v9.55l8.27-4.78c3.35-1.93,7.63-0.79,9.56,2.56
	C395.25,66.6,394.1,70.88,390.76,72.81z M465.75,72.81l-8.27,4.78l8.27,4.78c3.35,1.93,4.5,6.21,2.56,9.56
	c-1.93,3.35-6.21,4.5-9.56,2.56l-8.27-4.78v9.55c0,3.87-3.13,7-7,7s-7-3.13-7-7v-9.55l-8.27,4.77c-3.35,1.93-7.63,0.79-9.56-2.56
	c-1.93-3.35-0.79-7.63,2.56-9.56l8.27-4.78l-8.27-4.78c-3.35-1.93-4.5-6.21-2.56-9.56c1.93-3.35,6.22-4.5,9.56-2.56l8.27,4.77v-9.55
	c0-3.87,3.13-7,7-7s7,3.13,7,7v9.55l8.27-4.78c3.35-1.93,7.63-0.79,9.56,2.56C470.24,66.6,469.09,70.88,465.75,72.81z M165.79,72.81
	l-8.27,4.78l8.27,4.78c3.35,1.93,4.5,6.21,2.56,9.56c-1.93,3.35-6.21,4.5-9.56,2.56l-8.27-4.78v9.55c0,3.87-3.13,7-7,7s-7-3.13-7-7
	v-9.55l-8.27,4.78c-3.35,1.93-7.63,0.79-9.56-2.56s-0.79-7.63,2.56-9.56l8.27-4.78l-8.27-4.78c-3.35-1.93-4.5-6.21-2.56-9.56
	c1.93-3.35,6.22-4.5,9.56-2.56l8.27,4.78v-9.55c0-3.87,3.13-7,7-7s7,3.13,7,7v9.55l8.27-4.78c3.35-1.93,7.63-0.79,9.56,2.56
	C170.28,66.6,169.13,70.88,165.79,72.81z M90.8,72.81l-8.27,4.78l8.27,4.78c3.35,1.93,4.5,6.21,2.56,9.56
	c-1.93,3.35-6.22,4.5-9.56,2.56l-8.27-4.78v9.55c0,3.87-3.13,7-7,7s-7-3.13-7-7v-9.55l-8.27,4.78c-3.35,1.93-7.63,0.79-9.56-2.56
	c-1.93-3.35-0.79-7.63,2.56-9.56l8.27-4.78l-8.27-4.78c-3.35-1.93-4.5-6.21-2.56-9.56c1.93-3.35,6.21-4.5,9.56-2.56l8.27,4.78v-9.55
	c0-3.87,3.13-7,7-7s7,3.13,7,7v9.55l8.27-4.78c3.35-1.93,7.63-0.79,9.56,2.56C95.29,66.6,94.14,70.88,90.8,72.81z"/>
</svg>
